<svg viewBox="0 3.00 841.0 117.34" xmlns="http://www.w3.org/2000/svg"><path d="M26 6 H74 A20 20 0 0 1 94 26 V74 A20 20 0 0 1 74 94 H26 A20 20 0 0 1 6 74 V26 A20 20 0 0 1 26 6 Z" fill="#FF6B1A"/><path d="M159.4226267880364 94.0Q148.09362808842653 94.0 140.1404421326398 90.53836150845254Q132.18725617685305 87.07672301690508 128.01040312093627 80.46814044213264Q123.83355006501951 73.85955786736021 123.83355006501951 64.47594278283486H143.45903771131339Q143.5734720416125 68.53836150845254 145.57607282184654 71.45643693107932Q147.5786736020806 74.37451235370611 151.15474642392718 75.91937581274382Q154.73081924577372 77.46423927178154 159.59427828348504 77.46423927178154Q164.0 77.46423927178154 167.23276983094928 76.31989596879063Q170.46553966189856 75.17555266579974 172.26788036410923 73.08712613784135Q174.0702210663199 70.99869960988298 174.0702210663199 68.19505851755527Q174.0702210663199 65.7919375812744 172.55396618985696 63.989596879063726Q171.03771131339403 62.18725617685306 167.80494148244475 60.84265279583876Q164.57217165149544 59.49804941482445 159.4226267880364 58.4109232769831L150.66840052015604 56.63719115734721Q138.19505851755525 54.06241872561769 131.8439531859558 47.96879063719116Q125.49284785435631 41.875162548764635 125.49284785435631 32.54876462938882Q125.49284785435631 24.59557867360209 129.69830949284784 18.644993498049423Q133.9037711313394 12.694408322496756 141.45643693107934 9.347204161248378Q149.00910273081925 6.0 159.0221066319896 6.0Q169.26397919375813 6.0 176.64499349804942 9.347204161248378Q184.0260078023407 12.694408322496756 188.11703511053315 18.931079323797142Q192.2080624187256 25.16775032509753 192.49414824447334 33.9219765929779H173.4408322496749Q173.04031209362807 28.60078023407023 169.23537061118336 25.568270481144353Q165.43042912873864 22.535760728218477 159.30819245773733 22.535760728218477Q155.4746423927178 22.535760728218477 152.4707412223667 23.680104031209375Q149.4668400520156 24.824447334200272 147.77893368010405 26.855656697009113Q146.09102730819245 28.886866059817955 146.09102730819245 31.57607282184656Q146.09102730819245 33.9219765929779 147.5214564369311 35.60988296488947Q148.9518855656697 37.297789336801046 151.98439531859557 38.55656697009103Q155.01690507152145 39.81534460338102 159.88036410923277 40.78803641092328L167.37581274382313 42.27568270481145Q174.4707412223667 43.70611183355007 179.591677503251 45.851755526658Q184.71261378413524 47.99739921976594 188.00260078023405 50.97269180754227Q191.29258777633288 53.9479843953186 192.86605981794537 57.86736020806242Q194.43953185955786 61.786736020806245 194.43953185955786 66.7074122236671Q194.43953185955786 75.28998699609883 190.26267880364108 81.38361508452536Q186.0858257477243 87.47724317295189 178.24707412223665 90.73862158647594Q170.408322496749 94.0 159.4226267880364 94.0Z" fill="#E8E4D8"/><path d="M223.44863459037708 59.784135240572176V92.62678803641093H203.76592977893367V7.373211963589085H223.44863459037708V48.39791937581275H220.30169050715213Q223.10533159947983 40.387516254876466 228.4265279583875 35.63849154746424Q233.74772431729517 30.889466840052023 242.44473342002598 30.889466840052023Q249.02470741222365 30.889466840052023 253.6592977893368 33.721716514954494Q258.2938881664499 36.553966189856965 260.7542262678803 41.875162548764635Q263.2145643693108 47.196358907672305 263.2145643693108 54.63459037711314V92.62678803641093H243.53185955786734V58.75422626788037Q243.53185955786734 53.375812743823154 240.95708712613782 50.54356306892068Q238.3823146944083 47.71131339401821 233.69050715214564 47.71131339401821Q230.6007802340702 47.71131339401821 228.28348504551366 49.027308192457745Q225.96618985695707 50.34330299089728 224.70741222366706 53.003901170351114Q223.44863459037708 55.66449934980495 223.44863459037708 59.784135240572176Z" fill="#E8E4D8"/><path d="M302.8088426527959 94.0Q293.5396618985696 94.0 286.5305591677503 89.96618985695709Q279.5214564369311 85.93237971391417 275.60208062418724 78.78023407022107Q271.68270481144344 71.62808842652797 271.68270481144344 62.41612483745124Q271.68270481144344 53.20416124837452 275.60208062418724 46.052015604681415Q279.5214564369311 38.899869960988305 286.444733420026 34.86605981794539Q293.36801040312093 30.832249674902478 302.29388816644996 30.832249674902478Q309.1027308192458 30.832249674902478 314.71001300390117 33.092327698309504Q320.3172951885566 35.35240572171652 324.40832249674907 39.529258777633295Q328.4993498049415 43.70611183355007 330.7308192457738 49.399219765929786Q332.96228868660603 55.0923276983095 332.96228868660603 61.95838751625488V67.27958387516256H278.09102730819245V55.49284785435631H323.7503250975293L314.71001300390117 57.8959687906372Q314.71001300390117 54.005201560468144 313.27958387516253 51.20156046814044Q311.84915474642395 48.39791937581275 309.1885565669701 46.88166449934981Q306.52795838751626 45.36540962288687 302.8088426527959 45.36540962288687Q299.0897269180754 45.36540962288687 296.42912873862156 46.88166449934981Q293.76853055916774 48.39791937581275 292.30949284785436 51.20156046814044Q290.850455136541 54.005201560468144 290.850455136541 57.8959687906372V66.59297789336802Q290.850455136541 70.59817945383615 292.3667100130039 73.60208062418727Q293.88296488946685 76.60598179453837 296.7152145643693 78.20806241872563Q299.5474642392718 79.81014304291288 303.4954486345904 79.81014304291288Q306.41352405721716 79.81014304291288 308.70221066319897 79.00910273081925Q310.9908972691808 78.20806241872562 312.5357607282185 76.72041612483746Q314.0806241872562 75.2327698309493 314.8244473342003 73.28738621586476H332.5045513654096Q331.4174252275683 79.35240572171652 327.2405721716515 84.01560468140443Q323.0637191157347 88.67880364109233 316.74122236671 91.33940182054616Q310.4187256176853 94.0 302.8088426527959 94.0Z" fill="#E8E4D8"/><path d="M341.2015604681404 92.62678803641093V32.205461638491556H360.8842652795839V92.62678803641093Z M350.9856957087126 21.646319895968787Q346.2366710013004 21.646319895968787 343.20416124837453 19.5015344603381Q340.17165149544866 17.356749024707412 340.17165149544866 14.030143042912876Q340.17165149544866 10.703537061118332 343.20416124837453 8.580637191157347Q346.2366710013004 6.457737321196362 350.9856957087126 6.457737321196362Q355.73472041612484 6.457737321196362 358.7958387516255 8.580637191157347Q361.85695708712615 10.703537061118332 361.85695708712615 14.030143042912876Q361.85695708712615 17.356749024707412 358.7958387516255 19.5015344603381Q355.73472041612484 21.646319895968787 350.9856957087126 21.646319895968787Z" fill="#E8E4D8"/><path d="M417.5110533159948 92.62678803641093H394.853055916775V75.46163849154746H416.48114434330296Q424.3198959687906 75.46163849154746 429.38361508452533 72.60078023407021Q434.44733420026006 69.73992197659298 436.90767230169047 64.04681404421326Q439.36801040312093 58.35370611183355 439.36801040312093 50.00000000000001Q439.36801040312093 41.58907672301691 436.8790637191157 35.92457737321197Q434.3901170351105 30.260078023407026 429.2691807542262 27.399219765929782Q424.14824447334195 24.53836150845254 416.2522756827048 24.53836150845254H394.50975292587776V7.373211963589085H417.5110533159948Q430.49934980494146 7.373211963589085 440.0832249674902 12.608582574772441Q449.667100130039 17.843953185955797 454.87386215864757 27.399219765929786Q460.08062418725615 36.954486345903774 460.08062418725615 50.00000000000001Q460.08062418725615 63.04551365409624 454.9024707412224 72.60078023407023Q449.72431729518854 82.15604681404422 440.1976592977893 87.39141742522757Q430.6710013003901 92.62678803641093 417.5110533159948 92.62678803641093Z M406.4681404421326 7.373211963589085V92.62678803641093H385.86996098829644V7.373211963589085Z" fill="#E8E4D8"/><path d="M497.1573472041612 94.0Q487.88816644993494 94.0 480.8790637191157 89.96618985695709Q473.86996098829644 85.93237971391417 469.95058517555265 78.78023407022107Q466.0312093628088 71.62808842652797 466.0312093628088 62.41612483745124Q466.0312093628088 53.20416124837452 469.95058517555265 46.052015604681415Q473.86996098829644 38.899869960988305 480.79323797139136 34.86605981794539Q487.7165149544863 30.832249674902478 496.6423927178153 30.832249674902478Q503.45123537061113 30.832249674902478 509.0585175552665 33.092327698309504Q514.6657997399219 35.35240572171652 518.7568270481144 39.529258777633295Q522.8478543563068 43.70611183355007 525.0793237971391 49.399219765929786Q527.3107932379713 55.0923276983095 527.3107932379713 61.95838751625488V67.27958387516256H472.4395318595578V55.49284785435631H518.0988296488946L509.0585175552665 57.8959687906372Q509.0585175552665 54.005201560468144 507.62808842652794 51.20156046814044Q506.1976592977893 48.39791937581275 503.5370611183355 46.88166449934981Q500.8764629388816 45.36540962288687 497.1573472041612 45.36540962288687Q493.4382314694408 45.36540962288687 490.77763328998697 46.88166449934981Q488.11703511053315 48.39791937581275 486.65799739921977 51.20156046814044Q485.1989596879063 54.005201560468144 485.1989596879063 57.8959687906372V66.59297789336802Q485.1989596879063 70.59817945383615 486.71521456436926 73.60208062418727Q488.2314694408322 76.60598179453837 491.06371911573467 78.20806241872563Q493.89596879063714 79.81014304291288 497.84395318595574 79.81014304291288Q500.76202860858257 79.81014304291288 503.0507152145643 79.00910273081925Q505.33940182054613 78.20806241872562 506.8842652795838 76.72041612483746Q508.42912873862156 75.2327698309493 509.1729518855656 73.28738621586476H526.853055916775Q525.7659297789337 79.35240572171652 521.5890767230169 84.01560468140443Q517.4122236671001 88.67880364109233 511.08972691807537 91.33940182054616Q504.76723016905066 94.0 497.1573472041612 94.0Z" fill="#E8E4D8"/><path d="M562.2132639791937 94.11443433029909Q553.8595578673602 94.11443433029909 547.3940182054616 91.59687906371911Q540.9284785435631 89.07932379713915 537.0949284785436 84.38751625487647Q533.261378413524 79.6957087126138 532.6892067620286 73.28738621586476H552.0858257477242Q552.5435630689207 76.60598179453837 555.0897269180754 78.57997399219767Q557.6358907672301 80.55396618985696 561.927178153446 80.55396618985696Q565.9895968790637 80.55396618985696 568.2782834850454 79.12353706111834Q570.5669700910273 77.69310793237972 570.5669700910273 75.40442132639792Q570.5669700910273 73.40182054616386 568.707412223667 72.17165149544864Q566.8478543563068 70.94148244473342 563.2431729518855 70.31209362808843L552.3146944083225 68.36671001300391Q543.3888166449934 66.76462938881664 538.7256176853055 62.24447334200261Q534.0624187256176 57.72431729518856 534.0624187256176 50.57217165149545Q534.0624187256176 44.62158647594279 537.2951885565669 40.21586475942783Q540.5279583875162 35.81014304291288 546.6215864759426 33.37841352405722Q552.7152145643693 30.94668400520157 561.1261378413524 30.94668400520157Q569.594278283485 30.94668400520157 575.7737321196358 33.49284785435631Q581.9531859557867 36.03901170351106 585.4148244473341 40.70221066319897Q588.8764629388816 45.36540962288687 589.0481144343303 51.83094928478544H570.9102730819245Q570.853055916775 48.62678803641093 568.3068920676203 46.53836150845254Q565.7607282184655 44.449934980494156 561.8127438231469 44.449934980494156Q557.9791937581274 44.449934980494156 555.8335500650194 45.937581274382325Q553.6879063719115 47.425227568270486 553.6879063719115 49.656697009102736Q553.6879063719115 51.544863459037714 555.4044213263978 52.8036410923277Q557.1209362808842 54.06241872561769 560.2106631989597 54.63459037711314L572.3407022106632 56.86605981794539Q581.7243172951885 58.582574772431734 586.1586475942782 62.58777633289988Q590.592977893368 66.59297789336802 590.592977893368 73.34460338101431Q590.592977893368 79.52405721716515 587.0169050715215 84.21586475942783Q583.4408322496748 88.90767230169051 577.0611183355006 91.5110533159948Q570.6814044213263 94.11443433029909 562.2132639791937 94.11443433029909Z" fill="#E8E4D8"/><path d="M598.6605981794538 92.62678803641093V32.205461638491556H618.3433029908972V92.62678803641093Z M608.444733420026 26.312093628088434Q603.6957087126137 26.312093628088434 600.6631989596879 23.508452535760732Q597.630689206762 20.70481144343303 597.630689206762 16.35630689206762Q597.630689206762 12.007802340702213 600.6631989596879 9.232769830949287Q603.6957087126137 6.457737321196362 608.444733420026 6.457737321196362Q613.1937581274382 6.457737321196362 616.2548764629389 9.232769830949287Q619.3159947984395 12.007802340702213 619.3159947984395 16.35630689206762Q619.3159947984395 20.70481144343303 616.2548764629389 23.508452535760732Q613.1937581274382 26.312093628088434 608.444733420026 26.312093628088434Z" fill="#E8E4D8"/><path d="M659.1391417425227 117.34460338101431Q649.8127438231469 117.34460338101431 643.633289986996 114.7698309492848Q637.4538361508452 112.19505851755527 634.0780234070221 107.64629388816645Q630.7022106631989 103.09752925877764 629.7867360208062 97.31859557867361H648.6111833550065Q649.1261378413524 99.14954486345904 650.556566970091 100.52275682704811Q651.9869960988296 101.8959687906372 654.1612483745123 102.63979193758128Q656.3355006501951 103.38361508452536 659.1391417425227 103.38361508452536Q664.6319895968791 103.38361508452536 667.4928478543563 100.32249674902471Q670.3537061118335 97.26137841352406 670.3537061118335 91.25357607282186V81.92717815344604H670.296488946684Q668.6944083224967 85.47464239271783 666.148244473342 87.76332899869962Q663.6020806241872 90.05201560468142 660.2548764629389 91.13914174252277Q656.9076723016905 92.22626788036412 652.9596879063719 92.22626788036412Q645.0637191157347 92.22626788036412 639.1703511053315 88.3068920676203Q633.2769830949285 84.38751625487647 630.0442132639791 77.52145643693109Q626.8114434330299 70.6553966189857 626.8114434330299 61.786736020806245Q626.8114434330299 52.8036410923277 630.1300390117035 45.823146944083234Q633.4486345903771 38.84265279583876 639.2847854356307 34.86605981794539Q645.1209362808843 30.889466840052023 652.7880364109233 30.889466840052023Q656.7360208062419 30.889466840052023 659.9687906371912 32.00520156046815Q663.2015604681404 33.12093628088427 665.8335500650195 35.29518855656698Q668.4655396618986 37.46944083224968 670.296488946684 40.67360208062419H670.3537061118335V32.205461638491556H689.9219765929779V89.30819245773732Q689.9219765929779 99.14954486345904 686.1742522756826 105.32899869960988Q682.4265279583875 111.50845253576074 675.5032509752925 114.42652795838752Q668.5799739921977 117.34460338101431 659.1391417425227 117.34460338101431Z M658.4525357607282 76.777633289987Q662.2288686605981 76.777633289987 665.0325097529258 74.88946684005202Q667.8361508452535 73.00130039011704 669.409622886866 69.53966189856958Q670.9830949284785 66.07802340702212 670.9830949284785 61.443433029908974Q670.9830949284785 56.808842652795846 669.409622886866 53.375812743823154Q667.8361508452535 49.94278283485046 665.0325097529258 48.05461638491548Q662.2288686605981 46.1664499349805 658.4525357607282 46.1664499349805Q654.9050715214564 46.1664499349805 652.2444733420025 47.99739921976594Q649.5838751625487 49.82834850455137 648.1820546163849 53.26137841352406Q646.780234070221 56.694408322496756 646.780234070221 61.443433029908974Q646.780234070221 66.24967490247074 648.1820546163849 69.68270481144344Q649.5838751625487 73.11573472041613 652.2444733420025 74.94668400520156Q654.9050715214564 76.777633289987 658.4525357607282 76.777633289987Z" fill="#E8E4D8"/><path d="M720.590377113134 59.784135240572176V92.62678803641093H700.9076723016906V32.205461638491556H720.3615084525358V48.39791937581275H717.443433029909Q720.2470741222367 40.387516254876466 725.5682704811443 35.63849154746424Q730.889466840052 30.889466840052023 739.5864759427828 30.889466840052023Q746.1664499349805 30.889466840052023 750.8010403120936 33.721716514954494Q755.4356306892068 36.553966189856965 757.8959687906372 41.875162548764635Q760.3563068920677 47.196358907672305 760.3563068920677 54.63459037711314V92.62678803641093H740.6736020806243V58.75422626788037Q740.6736020806243 53.375812743823154 738.0988296488947 50.54356306892068Q735.5240572171651 47.71131339401821 730.8322496749025 47.71131339401821Q727.742522756827 47.71131339401821 725.4252275682704 49.027308192457745Q723.1079323797139 50.34330299089728 721.8491547464239 53.003901170351114Q720.590377113134 55.66449934980495 720.590377113134 59.784135240572176Z" fill="#E8E4D8"/><path d="M798.0052015604681 94.11443433029909Q789.6514954486346 94.11443433029909 783.185955786736 91.59687906371911Q776.7204161248375 89.07932379713915 772.886866059818 84.38751625487647Q769.0533159947984 79.6957087126138 768.481144343303 73.28738621586476H787.8777633289986Q788.3355006501951 76.60598179453837 790.8816644993498 78.57997399219767Q793.4278283485045 80.55396618985696 797.7191157347204 80.55396618985696Q801.7815344603381 80.55396618985696 804.0702210663198 79.12353706111834Q806.3589076723017 77.69310793237972 806.3589076723017 75.40442132639792Q806.3589076723017 73.40182054616386 804.4993498049414 72.17165149544864Q802.6397919375812 70.94148244473342 799.0351105331599 70.31209362808843L788.1066319895968 68.36671001300391Q779.1807542262678 66.76462938881664 774.5175552665798 62.24447334200261Q769.854356306892 57.72431729518856 769.854356306892 50.57217165149545Q769.854356306892 44.62158647594279 773.0871261378413 40.21586475942783Q776.3198959687905 35.81014304291288 782.413524057217 33.37841352405722Q788.5071521456437 30.94668400520157 796.9180754226268 30.94668400520157Q805.3862158647594 30.94668400520157 811.5656697009102 33.49284785435631Q817.7451235370611 36.03901170351106 821.2067620286085 40.70221066319897Q824.668400520156 45.36540962288687 824.8400520156047 51.83094928478544H806.7022106631989Q806.6449934980494 48.62678803641093 804.0988296488947 46.53836150845254Q801.5526657997399 44.449934980494156 797.6046814044213 44.449934980494156Q793.7711313394018 44.449934980494156 791.6254876462938 45.937581274382325Q789.4798439531859 47.425227568270486 789.4798439531859 49.656697009102736Q789.4798439531859 51.544863459037714 791.1963589076722 52.8036410923277Q792.9128738621586 54.06241872561769 796.002600780234 54.63459037711314L808.1326397919375 56.86605981794539Q817.5162548764629 58.582574772431734 821.9505851755526 62.58777633289988Q826.3849154746424 66.59297789336802 826.3849154746424 73.34460338101431Q826.3849154746424 79.52405721716515 822.8088426527959 84.21586475942783Q819.2327698309492 88.90767230169051 812.853055916775 91.5110533159948Q806.4733420026007 94.11443433029909 798.0052015604681 94.11443433029909Z" fill="#E8E4D8"/><rect x="234.76" y="6.46" width="34.29" height="15.19" rx="7.59" fill="#E8E4D8"/><rect x="280.71" y="6.46" width="34.29" height="15.19" rx="7.59" fill="#E8E4D8"/><rect x="326.65" y="6.46" width="34.29" height="15.19" rx="7.59" fill="#E8E4D8"/></svg>